<?xml version="1.0" standalone="no"?>
<!DOCTYPE svg PUBLIC "-//W3C//DTD SVG 20010904//EN"
 "http://www.w3.org/TR/2001/REC-SVG-20010904/DTD/svg10.dtd">
<svg version="1.0" xmlns="http://www.w3.org/2000/svg"
 width="225.000000pt" height="225.000000pt" viewBox="0 0 225.000000 225.000000"
 preserveAspectRatio="xMidYMid meet">

<g transform="translate(0.000000,225.000000) scale(0.100000,-0.100000)"
fill="#000000" stroke="none">
<path d="M1103 2112 c-13 -2 -23 -8 -23 -13 0 -6 -5 -7 -10 -4 -13 8 -40 -12
-40 -29 0 -6 4 -6 9 2 7 12 12 12 30 1 11 -8 21 -21 21 -29 0 -9 6 -22 13 -29
10 -11 9 -13 -5 -8 -11 4 -18 1 -18 -6 0 -17 -36 -38 -55 -31 -30 12 -15 29
21 25 16 -2 24 23 13 40 -6 10 -9 10 -9 2 0 -7 -6 -13 -14 -13 -7 0 -19 -7
-26 -15 -7 -8 -18 -15 -24 -15 -6 0 -3 5 7 11 20 12 23 29 4 29 -19 0 -47 -33
-47 -54 0 -21 25 -48 35 -38 5 4 5 1 1 -6 -4 -7 -2 -19 4 -27 7 -8 10 -15 7
-15 -3 0 -28 28 -56 63 -70 86 -80 91 -133 68 -24 -11 -58 -25 -77 -32 -19 -7
-29 -15 -23 -17 7 -2 12 -12 12 -23 0 -15 7 -19 36 -19 l36 0 -23 -20 c-13
-10 -19 -19 -12 -20 6 0 15 5 18 10 11 19 35 10 36 -12 0 -14 11 4 25 42 14
36 27 66 28 67 1 1 7 -11 13 -28 11 -27 10 -29 -4 -17 -14 11 -15 11 -11 -2 3
-8 14 -15 25 -15 20 0 93 -57 93 -73 0 -20 -62 -93 -105 -122 -42 -29 -45 -33
-32 -48 26 -29 48 -97 55 -168 l7 -69 58 90 58 89 -41 16 c-23 9 -41 19 -41
23 1 4 1 14 1 23 0 15 2 15 25 0 28 -18 39 -21 30 -6 -3 5 -1 18 5 27 11 17
11 17 6 1 -6 -21 -2 -22 24 -8 16 8 18 8 14 -5 -4 -8 -13 -15 -21 -15 -8 0
-11 -4 -8 -10 11 -18 22 -10 53 39 24 39 27 51 16 55 -8 3 -14 17 -14 31 0 14
-5 25 -12 25 -6 0 -8 3 -4 7 8 8 60 -45 61 -62 1 -25 37 -76 51 -71 8 3 14 1
14 -4 0 -6 -5 -10 -12 -10 -9 0 -9 -3 0 -12 9 -9 15 -9 20 -2 10 15 52 12 52
-4 0 -11 3 -12 14 -3 10 9 16 9 21 1 5 -8 10 -8 20 0 10 8 16 7 22 -5 5 -9 19
-17 30 -18 12 0 20 -4 17 -9 -2 -4 12 -10 33 -14 21 -4 45 -10 54 -15 11 -6
21 -4 29 5 9 11 5 26 -15 66 -14 28 -24 57 -22 63 2 6 27 -38 55 -97 48 -98
54 -107 70 -95 9 8 19 17 22 20 3 4 16 21 29 38 13 17 32 31 42 31 21 0 25 15
7 24 -7 3 -4 5 7 3 28 -3 32 -35 5 -39 -19 -3 -20 -5 -7 -22 14 -19 15 -19 31
12 16 30 22 61 10 49 -3 -3 -12 0 -19 6 -17 15 -1 47 23 47 9 0 23 9 30 20 7
11 8 20 3 20 -5 0 -11 -6 -14 -12 -3 -10 -7 -10 -17 -1 -10 9 -8 16 9 34 25
27 24 29 -12 22 -21 -4 -25 -8 -15 -14 10 -7 8 -9 -6 -9 -14 0 -17 -5 -12 -24
5 -20 1 -26 -16 -31 -44 -13 -78 -30 -80 -40 -1 -5 -2 -21 -2 -35 -1 -18 -7
-26 -23 -28 -20 -3 -21 0 -18 65 1 37 3 71 4 75 1 6 50 20 83 23 28 3 32 13
19 41 -10 23 -14 24 -28 13 -14 -12 -15 -11 -10 6 8 24 -7 53 -17 36 -12 -19
-28 -13 -17 7 12 23 -4 52 -30 52 -11 0 -17 -4 -14 -10 9 -15 -25 -60 -41 -53
-11 4 -12 9 -3 19 9 11 8 14 -4 14 -9 0 -17 8 -20 18 -2 9 -7 -25 -12 -75 -4
-51 -12 -93 -18 -93 -6 0 -7 18 -3 48 19 133 19 182 1 202 -10 11 -24 20 -30
20 -7 0 -16 7 -19 16 -3 8 -10 12 -16 9 -5 -3 -10 -2 -10 4 0 9 -55 41 -70 41
-12 0 -6 -64 8 -78 6 -7 12 -22 12 -32 0 -10 3 -25 6 -34 4 -11 1 -16 -11 -16
-9 0 -14 4 -10 9 3 5 -4 34 -15 64 -11 30 -19 61 -18 68 2 7 -4 14 -12 14 -8
1 -28 6 -43 13 -40 17 -49 15 -42 -8 8 -25 -9 -26 -27 -2 -7 10 -23 16 -35 14z
m21 -35 c14 -11 16 -18 9 -32 -9 -16 -11 -16 -27 6 -27 39 -17 52 18 26z m76
-19 c0 -5 14 -14 31 -20 23 -8 27 -13 17 -19 -7 -5 -10 -9 -6 -9 4 0 3 -13 -2
-30 -8 -26 -5 -33 23 -54 30 -24 32 -24 52 -8 18 16 19 16 6 0 -18 -23 -5 -43
17 -26 15 11 15 11 5 -3 -7 -9 -9 -20 -5 -24 9 -11 -18 4 -38 20 -8 7 -42 27
-75 45 -68 37 -103 60 -92 60 4 0 19 -7 32 -16 13 -9 31 -14 40 -12 14 3 13
10 -9 51 -31 57 -30 54 -11 54 8 0 15 -4 15 -9z m178 -113 c0 -14 -4 -10 -14
13 -8 18 -11 38 -7 45 8 13 21 -23 21 -58z m-242 -11 c-6 -23 -4 -25 11 -19
10 4 27 9 38 12 l20 4 -20 -12 c-11 -7 -20 -11 -21 -8 0 2 -8 -2 -17 -10 -10
-7 -17 -9 -17 -3 0 6 -11 9 -25 7 -14 -1 -25 1 -25 5 0 4 11 12 25 18 14 6 25
16 25 22 0 5 3 10 6 10 3 0 3 -12 0 -26z m138 -74 c9 7 19 10 22 7 10 -10 -31
-26 -84 -33 -34 -4 -52 -3 -52 4 0 5 9 8 20 5 11 -3 20 -1 20 5 0 14 43 20 52
8 4 -6 13 -4 22 4z m274 3 c-9 -2 -21 -16 -27 -31 -8 -22 -10 -23 -10 -6 -1
24 17 44 39 43 12 -1 12 -2 -2 -6z m-501 -9 c-3 -3 -12 -4 -19 -1 -8 3 -5 6 6
6 11 1 17 -2 13 -5z m93 -13 c0 -4 -9 -7 -20 -8 -11 -1 -20 4 -20 12 0 8 7 11
20 8 11 -3 20 -8 20 -12z m231 2 c13 -16 12 -17 -3 -4 -10 7 -18 15 -18 17 0
8 8 3 21 -13z m197 -33 c14 0 15 -2 2 -9 -19 -13 -30 -4 -29 22 1 17 2 18 6 5
2 -10 12 -18 21 -18z m-372 -17 c-10 -10 -19 5 -10 18 6 11 8 11 12 0 2 -7 1
-15 -2 -18z m68 14 c11 -11 7 -15 -20 -23 -27 -9 -34 -8 -34 2 0 8 7 14 15 14
8 0 15 5 15 10 0 14 9 13 24 -3z m-114 -27 c0 -5 -2 -10 -4 -10 -3 0 -8 5 -11
10 -3 6 -1 10 4 10 6 0 11 -4 11 -10z m370 -5 c0 -8 -7 -15 -15 -15 -9 0 -12
6 -9 15 4 8 10 15 15 15 5 0 9 -7 9 -15z m-16 -49 c-21 -15 -30 -14 -19 3 3 6
14 11 23 11 13 0 13 -2 -4 -14z m-94 -12 c0 -8 -4 -12 -10 -9 -5 3 -10 10 -10
16 0 5 5 9 10 9 6 0 10 -7 10 -16z m-60 -30 c0 -9 -5 -14 -12 -12 -18 6 -21
28 -4 28 9 0 16 -7 16 -16z m34 7 c3 -5 0 -11 -7 -14 -8 -3 -14 1 -14 9 0 16
13 19 21 5z m39 -48 c-7 -2 -19 -2 -25 0 -7 3 -2 5 12 5 14 0 19 -2 13 -5z
m-453 -13 c0 -5 -4 -10 -9 -10 -6 0 -13 5 -16 10 -3 6 1 10 9 10 9 0 16 -4 16
-10z"/>
<path d="M1005 2080 c3 -5 8 -10 11 -10 2 0 4 5 4 10 0 6 -5 10 -11 10 -5 0
-7 -4 -4 -10z"/>
<path d="M970 2050 c-12 -8 -10 -10 8 -10 13 0 20 4 17 10 -7 12 -6 12 -25 0z"/>
<path d="M630 1798 c0 -9 5 -20 10 -23 13 -8 13 5 0 25 -8 13 -10 13 -10 -2z"/>
<path d="M600 1729 c-6 -22 -14 -47 -17 -56 -5 -12 -3 -14 7 -8 10 6 12 0 6
-33 -4 -28 -3 -42 5 -42 6 0 8 -8 4 -20 -9 -29 13 -25 37 6 11 14 23 23 26 20
2 -3 0 -12 -6 -19 -7 -7 -13 -22 -15 -33 -2 -10 -9 -30 -14 -44 -16 -37 15
-88 69 -116 26 -14 28 -13 26 8 -1 13 2 33 6 46 5 13 3 22 -3 22 -6 0 -11 -4
-11 -9 0 -5 -6 -11 -14 -14 -11 -5 -12 1 -3 31 6 20 17 44 24 53 10 12 11 23
2 47 -6 18 -16 32 -22 32 -6 0 -8 3 -4 6 3 4 -5 28 -18 55 -31 61 -31 63 3 42
l27 -18 -16 25 c-9 14 -24 25 -34 25 -9 0 -22 8 -29 18 -19 25 -24 22 -36 -24z
m27 -125 c-3 -3 -12 -4 -19 -1 -8 3 -5 6 6 6 11 1 17 -2 13 -5z m93 -36 c0 -6
-7 -8 -15 -4 -8 3 -15 1 -15 -4 0 -6 10 -10 21 -10 18 0 19 -3 9 -14 -6 -8
-18 -12 -26 -9 -8 3 -14 0 -14 -7 0 -6 -4 -9 -9 -6 -14 9 20 75 36 69 7 -3 13
-10 13 -15z m-55 -98 c-4 -12 -9 -19 -12 -17 -3 3 -2 15 2 27 4 12 9 19 12 17
3 -3 2 -15 -2 -27z"/>
<path d="M1660 1761 c0 -6 4 -13 10 -16 6 -3 7 1 4 9 -7 18 -14 21 -14 7z"/>
<path d="M772 1675 c-18 -15 -37 -23 -46 -19 -9 3 -16 1 -16 -5 0 -6 7 -11 15
-11 8 0 15 -4 15 -10 0 -5 11 -12 25 -16 30 -7 33 -24 4 -24 -11 0 -17 -4 -14
-10 3 -5 22 -10 41 -10 19 0 33 4 30 9 -3 5 2 11 13 14 20 5 21 28 2 75 -16
39 -30 40 -69 7z"/>
<path d="M1720 1690 c0 -5 5 -10 11 -10 5 0 7 5 4 10 -3 6 -8 10 -11 10 -2 0
-4 -4 -4 -10z"/>
<path d="M535 1639 c-10 -15 1 -23 20 -15 9 3 13 10 10 16 -8 13 -22 13 -30
-1z"/>
<path d="M1550 1639 c0 -5 5 -7 10 -4 6 3 10 8 10 11 0 2 -4 4 -10 4 -5 0 -10
-5 -10 -11z"/>
<path d="M1217 1610 c19 -32 28 -37 36 -17 4 9 6 9 6 -1 1 -21 21 -3 21 20 0
16 -4 19 -24 14 -14 -3 -28 -2 -31 4 -3 5 -11 10 -16 10 -6 0 -2 -13 8 -30z"/>
<path d="M1489 1617 c-4 -19 -5 -23 -12 -35 -5 -7 -13 -10 -18 -6 -6 3 -34 7
-64 7 -29 1 -49 -1 -43 -4 5 -3 -4 -9 -20 -12 -38 -8 -112 -77 -82 -77 10 0
20 -5 22 -11 2 -5 11 -7 21 -4 9 4 15 11 12 15 -6 9 45 24 53 15 3 -3 0 -5 -6
-5 -7 0 -12 -7 -12 -15 0 -8 -4 -15 -10 -15 -5 0 -10 -4 -10 -10 0 -19 39 -10
45 10 3 11 11 20 16 20 5 0 9 7 9 15 0 12 15 15 75 15 41 0 75 2 75 5 0 10
-50 100 -51 92z"/>
<path d="M1294 1591 c7 -11 -22 -23 -36 -15 -6 4 -9 1 -6 -6 7 -23 23 -22 52
5 25 23 26 25 6 25 -12 0 -19 -4 -16 -9z"/>
<path d="M1645 1581 c-3 -5 -1 -12 5 -16 5 -3 10 1 10 9 0 18 -6 21 -15 7z"/>
<path d="M512 1541 c-50 -20 -52 -38 -4 -33 19 2 32 -1 32 -8 0 -6 -6 -8 -12
-4 -9 5 -10 4 -3 -3 6 -6 27 -14 49 -17 34 -7 38 -5 32 10 -3 9 -1 24 6 33 12
14 11 14 -4 3 -15 -12 -18 -11 -24 12 -7 30 -14 31 -72 7z"/>
<path d="M1549 1482 c5 -10 18 -25 28 -33 12 -10 11 -5 -6 19 -24 35 -38 43
-22 14z"/>
<path d="M1580 1492 c1 -15 39 -56 46 -49 4 4 2 7 -4 7 -7 0 -12 9 -12 19 0
10 -7 21 -15 25 -8 3 -15 2 -15 -2z"/>
<path d="M1822 1445 c-7 -14 -8 -27 -2 -30 5 -3 12 6 16 20 9 35 0 41 -14 10z"/>
<path d="M746 1424 c-4 -15 -5 -28 -3 -31 3 -2 7 7 11 21 3 13 14 27 24 29 13
4 12 5 -4 6 -16 1 -24 -7 -28 -25z"/>
<path d="M1458 1443 c12 -2 30 -2 40 0 9 3 -1 5 -23 4 -22 0 -30 -2 -17 -4z"/>
<path d="M556 1375 c-9 -14 -26 -25 -37 -25 -17 0 -19 -3 -11 -13 9 -10 6 -17
-8 -27 -21 -15 -28 -36 -8 -24 7 4 8 3 4 -4 -5 -8 -14 -8 -34 -1 -88 35 -202
50 -202 28 0 -6 11 -24 24 -40 13 -15 26 -33 28 -39 2 -7 21 -7 61 1 61 11 97
7 62 -7 -18 -7 -65 -50 -65 -59 0 -2 7 -11 16 -19 14 -15 14 -16 -3 -16 -11 0
-25 6 -32 13 -11 10 -14 10 -18 0 -3 -7 -10 -13 -17 -13 -7 0 -22 -13 -34 -30
-18 -24 -19 -30 -8 -30 13 0 14 -4 4 -25 -7 -15 -17 -24 -25 -21 -9 4 -11 1
-7 -6 4 -6 -1 -17 -11 -25 -11 -7 -15 -13 -11 -13 5 0 31 17 60 37 67 49 41
17 -40 -48 -36 -30 -67 -64 -73 -82 -14 -38 -14 -46 0 -27 8 11 9 7 5 -18 -4
-20 -2 -31 4 -27 6 3 10 1 10 -4 0 -6 -5 -11 -10 -11 -17 0 -7 -80 10 -85 11
-3 15 -18 15 -46 0 -26 6 -45 16 -53 9 -6 19 -21 23 -32 8 -27 51 -74 67 -74
6 0 9 -7 6 -14 -4 -10 -1 -13 7 -10 18 7 8 54 -13 55 -13 0 -14 2 -1 6 8 3 18
11 22 17 4 6 8 -4 8 -21 0 -22 5 -33 14 -33 8 0 21 -9 29 -20 14 -20 15 -19
51 22 l38 43 -18 -35 c-9 -19 -24 -40 -32 -46 -27 -19 -4 -71 59 -136 33 -33
62 -58 65 -55 3 3 22 -6 42 -19 20 -14 42 -22 49 -19 8 2 11 0 8 -5 -3 -6 0
-10 7 -11 171 -10 166 -11 178 12 9 15 15 18 23 10 19 -19 29 -12 23 14 -7 27
0 31 24 15 10 -6 11 -10 3 -10 -7 0 -13 -9 -13 -21 0 -33 44 -22 48 12 3 27
16 29 62 11 45 -17 50 -8 14 24 -21 19 -42 34 -47 34 -5 0 -7 6 -4 14 8 21
-12 33 -70 41 -76 10 -164 55 -207 107 l-37 44 -52 -17 c-29 -10 -62 -18 -75
-19 -21 0 -22 2 -9 21 13 18 63 59 95 78 10 5 10 14 1 39 -9 26 -14 30 -25 21
-11 -9 -14 -8 -14 4 0 8 6 17 13 20 8 3 7 10 -7 26 -15 16 -22 18 -28 9 -18
-28 -1 29 23 77 27 52 31 97 11 117 -7 7 -12 19 -12 27 0 14 1 14 10 1 5 -8
10 -10 10 -4 0 5 6 19 14 30 15 19 15 19 29 0 14 -19 15 -18 28 17 7 20 16 32
19 27 9 -14 70 -31 70 -20 0 5 -12 16 -27 24 l-28 15 28 1 c46 0 31 31 -25 49
-20 7 -42 19 -48 27 -7 7 -18 14 -24 14 -6 0 -4 -5 4 -10 13 -9 13 -10 0 -10
-8 -1 -25 -23 -38 -50 -26 -55 -50 -69 -28 -17 7 19 10 40 6 48 -10 19 -31
141 -25 148 3 2 5 -3 5 -12 0 -8 7 -22 15 -31 9 -8 16 -18 15 -21 -1 -22 3
-26 23 -24 12 2 27 0 32 -3 6 -4 11 2 11 13 0 10 -5 19 -11 19 -16 0 -75 64
-75 81 0 9 11 21 25 27 14 6 25 18 25 26 0 8 5 16 11 18 7 2 7 12 -2 31 -7 15
-17 26 -22 24 -5 -1 -43 -70 -86 -153 l-77 -151 28 -34 c15 -18 28 -38 28 -44
0 -20 -31 -12 -47 12 -19 29 -48 31 -40 3 3 -10 0 -22 -7 -25 -8 -3 -7 -7 2
-11 7 -3 24 -17 37 -30 13 -13 31 -24 38 -24 12 0 27 -20 27 -36 0 -2 -12 -4
-27 -3 -25 0 -26 1 -8 9 18 8 18 9 -4 9 -14 1 -37 13 -52 27 l-26 25 -8 -28
c-13 -44 -13 -46 19 -88 l30 -40 -35 33 -35 32 -29 -30 c-15 -16 -32 -27 -37
-24 -5 4 6 17 25 31 28 20 36 34 42 70 3 24 12 61 19 81 26 75 28 92 9 86 -15
-5 -16 -4 -3 5 8 6 23 11 33 11 13 0 37 40 88 148 39 81 73 150 76 155 11 19
-7 4 -21 -18z m44 -79 c0 -2 -7 -7 -16 -10 -8 -3 -12 -2 -9 4 6 10 25 14 25 6z
m-250 -175 c0 -6 -4 -13 -10 -16 -5 -3 -10 1 -10 9 0 9 5 16 10 16 6 0 10 -4
10 -9z m170 5 c0 -3 -4 -8 -10 -11 -5 -3 -10 -1 -10 4 0 6 5 11 10 11 6 0 10
-2 10 -4z m-213 -63 c-3 -10 -5 -2 -5 17 0 19 2 27 5 18 2 -10 2 -26 0 -35z
m253 16 c0 -6 -4 -7 -10 -4 -5 3 -10 11 -10 16 0 6 5 7 10 4 6 -3 10 -11 10
-16z m-310 -203 c0 -2 -11 -11 -25 -20 -14 -9 -25 -12 -25 -6 0 6 10 15 23 20
27 11 27 11 27 6z m300 -66 c0 -5 -2 -10 -4 -10 -3 0 -8 5 -11 10 -3 6 -1 10
4 10 6 0 11 -4 11 -10z m-294 -50 c-14 -17 -26 -36 -26 -42 0 -7 -5 -6 -14 1
-24 20 -5 65 30 72 16 3 31 4 33 3 2 -2 -8 -17 -23 -34z m64 -34 c0 -2 -8 -10
-17 -17 -16 -13 -17 -12 -4 4 13 16 21 21 21 13z m-50 -62 c0 -8 -19 -13 -24
-6 -3 5 1 9 9 9 8 0 15 -2 15 -3z m45 -49 c-14 -16 -28 -25 -31 -22 -4 3 7 17
22 31 37 31 42 26 9 -9z m350 -165 c3 -6 -1 -7 -9 -4 -18 7 -21 14 -7 14 6 0
13 -4 16 -10z m-55 -70 c0 -5 7 -10 15 -10 8 0 15 -7 15 -16 0 -8 -4 -13 -8
-10 -5 3 -19 -1 -33 -8 -28 -14 -49 -11 -49 9 0 8 7 11 19 8 10 -3 22 0 25 6
4 6 2 11 -4 11 -6 0 -8 5 -5 10 3 6 10 10 16 10 5 0 9 -4 9 -10z m80 -140 c0
-5 -2 -10 -4 -10 -3 0 -8 5 -11 10 -3 6 -1 10 4 10 6 0 11 -4 11 -10z"/>
<path d="M220 760 c0 -5 5 -10 10 -10 6 0 10 5 10 10 0 6 -4 10 -10 10 -5 0
-10 -4 -10 -10z"/>
<path d="M1793 1351 c-10 -15 -10 -20 0 -24 9 -3 9 -9 0 -30 -9 -18 -9 -28 -2
-33 8 -4 7 -9 -2 -15 -21 -13 -29 -11 -22 8 5 12 3 14 -7 8 -8 -5 -19 0 -31
16 l-18 24 6 -25 c3 -14 19 -38 34 -54 27 -27 39 -66 21 -66 -5 0 -17 9 -27
20 -10 11 -22 20 -27 20 -15 0 -8 -23 13 -46 17 -19 25 -21 44 -12 24 11 27
25 41 166 6 63 -2 77 -23 43z"/>
<path d="M1915 1333 c-4 -13 -12 -23 -18 -23 -6 0 -7 -3 -4 -6 3 -4 -12 -20
-34 -36 -50 -36 -44 -48 9 -18 44 25 67 58 59 86 -4 17 -6 17 -12 -3z"/>
<path d="M1755 1290 c3 -5 11 -10 16 -10 6 0 7 5 4 10 -3 6 -11 10 -16 10 -6
0 -7 -4 -4 -10z"/>
<path d="M255 1270 c3 -5 1 -10 -4 -10 -8 0 -7 -6 1 -19 9 -15 9 -23 -1 -35
-16 -19 -1 -22 18 -3 10 10 12 8 9 -8 -2 -12 3 -21 14 -23 14 -3 17 2 14 25
-3 32 -33 83 -48 83 -5 0 -6 -4 -3 -10z"/>
<path d="M1528 1264 c-4 -3 -26 -8 -49 -10 -24 -3 -45 -7 -47 -9 -4 -4 124
-41 169 -49 28 -5 38 -3 43 10 9 24 7 31 -8 37 -10 4 -12 0 -9 -14 8 -28 -11
-23 -49 11 -33 31 -40 34 -50 24z"/>
<path d="M1907 1264 c-11 -11 3 -24 18 -18 8 4 12 10 9 15 -6 11 -18 12 -27 3z"/>
<path d="M1995 1250 c-3 -5 -1 -10 4 -10 6 0 11 5 11 10 0 6 -2 10 -4 10 -3 0
-8 -4 -11 -10z"/>
<path d="M1940 1231 c0 -5 -8 -11 -17 -15 -10 -3 -38 -17 -63 -31 -38 -21 -40
-24 -15 -19 51 12 89 32 103 53 7 13 8 21 2 21 -5 0 -10 -4 -10 -9z"/>
<path d="M1981 1223 c1 -4 1 -17 0 -28 -1 -14 -4 -16 -9 -7 -7 10 -12 8 -24
-5 -13 -14 -15 -27 -8 -63 5 -25 9 -64 10 -88 l0 -43 27 20 c14 12 29 19 32
15 7 -6 -39 -43 -55 -44 -6 0 -16 -19 -23 -42 -15 -50 -34 -82 -75 -125 l-30
-33 43 0 c34 0 42 3 37 15 -3 8 -1 15 4 15 6 0 10 -6 10 -12 0 -9 3 -8 10 2 7
11 12 12 20 4 12 -12 57 -7 66 7 3 5 0 9 -6 9 -6 0 -9 4 -5 10 3 5 12 7 19 4
8 -3 17 -1 21 5 3 6 1 11 -6 11 -6 0 -1 8 11 18 12 10 30 39 40 65 16 42 16
46 1 38 -9 -5 -29 -23 -46 -39 -16 -16 -41 -33 -55 -37 -18 -6 -9 8 38 52 53
51 62 64 62 94 0 42 -8 53 -27 38 -10 -9 -13 -7 -13 7 1 24 25 56 35 46 5 -4
5 -1 1 6 -4 7 -12 9 -18 6 -7 -5 -9 -2 -5 8 3 10 1 15 -7 14 -18 -3 -66 -42
-66 -55 0 -6 -4 -11 -8 -11 -5 0 -7 13 -4 30 2 16 8 27 13 24 5 -3 9 11 9 30
0 19 -5 38 -10 41 -6 4 -10 3 -9 -2z"/>
<path d="M666 1208 c-7 -23 -3 -53 8 -60 25 -17 28 -6 17 65 -2 12 -21 8 -25
-5z"/>
<path d="M1756 1187 c3 -10 9 -15 12 -12 3 3 0 11 -7 18 -10 9 -11 8 -5 -6z"/>
<path d="M250 1160 c0 -5 5 -10 10 -10 6 0 10 5 10 10 0 6 -4 10 -10 10 -5 0
-10 -4 -10 -10z"/>
<path d="M1686 1155 c4 -8 1 -21 -5 -29 -6 -7 -9 -21 -5 -30 5 -14 9 -13 33 6
l26 22 -21 23 c-25 26 -36 30 -28 8z"/>
<path d="M220 1145 c0 -8 2 -15 4 -15 2 0 6 7 10 15 3 8 1 15 -4 15 -6 0 -10
-7 -10 -15z"/>
<path d="M660 1131 c0 -5 7 -12 16 -15 14 -5 15 -4 4 9 -14 17 -20 19 -20 6z"/>
<path d="M1500 1125 c0 -14 29 -35 48 -35 24 0 35 -35 17 -50 -10 -8 -14 -7
-18 2 -3 7 -6 9 -6 3 0 -5 28 -62 63 -125 62 -111 65 -115 100 -118 27 -2 36
1 36 12 0 10 15 17 46 22 51 7 48 21 -6 26 -34 3 -32 4 35 30 l70 27 -48 -4
c-45 -4 -47 -4 -37 15 6 12 21 20 35 20 14 0 25 4 25 9 0 5 8 12 18 15 9 3 5
4 -10 2 -34 -4 -37 16 -7 59 37 55 49 84 39 90 -6 3 -15 -4 -20 -17 -21 -45
-37 -68 -43 -61 -4 3 -7 -3 -7 -14 0 -11 -22 -53 -50 -94 -56 -85 -108 -148
-90 -112 6 13 9 35 6 50 -2 16 -5 47 -5 71 -1 36 -3 41 -15 30 -9 -8 -11 -17
-5 -25 7 -7 5 -13 -3 -15 -10 -4 -10 -8 1 -21 8 -10 9 -17 3 -17 -6 0 -19 11
-30 25 -20 25 -40 35 -26 13 4 -7 3 -8 -5 -4 -6 4 -11 13 -10 19 3 25 -1 36
-16 39 -13 3 -13 6 0 32 8 15 12 32 9 37 -3 5 2 6 10 3 8 -3 17 -12 20 -20 5
-12 9 -12 26 -2 27 17 25 26 -7 34 -16 4 -44 15 -63 24 -45 22 -80 33 -80 25z"/>
<path d="M1806 1095 c-9 -9 -16 -22 -16 -28 0 -6 10 -2 22 11 12 12 19 24 16
27 -3 3 -13 -1 -22 -10z"/>
<path d="M1757 1093 c-9 -15 -30 -134 -24 -139 3 -3 8 11 12 32 3 22 10 54 16
72 10 31 7 54 -4 35z"/>
<path d="M418 1043 c7 -3 16 -2 19 1 4 3 -2 6 -13 5 -11 0 -14 -3 -6 -6z"/>
<path d="M1781 1024 c0 -11 3 -14 6 -6 3 7 2 16 -1 19 -3 4 -6 -2 -5 -13z"/>
<path d="M610 909 c0 -5 5 -7 10 -4 6 3 10 8 10 11 0 2 -4 4 -10 4 -5 0 -10
-5 -10 -11z"/>
<path d="M2091 894 c0 -11 3 -14 6 -6 3 7 2 16 -1 19 -3 4 -6 -2 -5 -13z"/>
<path d="M2067 853 c-4 -3 -7 -11 -7 -17 0 -6 5 -5 12 2 6 6 9 14 7 17 -3 3
-9 2 -12 -2z"/>
<path d="M1337 783 c-15 -21 -27 -34 -27 -30 0 4 -9 -2 -21 -14 -11 -11 -19
-23 -16 -25 2 -2 10 2 17 11 7 8 19 15 27 15 9 0 4 -9 -13 -25 -14 -13 -30
-22 -35 -19 -9 5 -12 -4 -13 -46 -1 -17 -6 -25 -18 -24 -10 1 -18 -2 -18 -7 0
-5 7 -9 15 -9 8 0 15 -4 15 -10 0 -12 -42 -8 -53 5 -5 6 -7 0 -4 -12 3 -13 1
-23 -4 -23 -4 0 -6 -6 -3 -14 4 -10 -2 -13 -21 -10 -15 1 -24 0 -21 -3 3 -3
-1 -12 -9 -20 -23 -23 -18 -35 13 -29 15 3 72 10 127 17 94 11 149 30 158 53
2 6 2 1 0 -12 -5 -31 3 -29 182 51 128 56 238 104 259 111 10 4 17 9 14 12 -3
2 -18 0 -33 -6 -24 -9 -26 -9 -16 4 7 9 8 17 2 20 -12 8 -41 -3 -41 -15 0 -4
-7 -5 -17 -2 -12 5 -14 3 -8 -7 6 -10 4 -12 -9 -7 -10 4 -29 7 -42 7 -18 0
-24 5 -24 21 0 14 -4 18 -12 12 -7 -4 -17 -8 -23 -8 -5 0 -9 -9 -7 -20 2 -16
1 -17 -7 -6 -8 12 -12 13 -25 1 -22 -17 -32 -5 -15 17 12 16 12 17 -1 7 -23
-18 -64 -28 -56 -15 4 6 2 11 -3 11 -14 0 -14 -13 1 -28 6 -6 9 -15 5 -19 -4
-4 -13 -1 -19 5 -7 7 -16 12 -20 12 -9 0 -60 -77 -70 -105 -6 -18 -6 -18 -7 3
-1 12 6 39 14 59 14 34 14 38 -1 52 -9 9 -14 10 -10 4 4 -7 4 -13 -1 -13 -4 0
-17 -13 -27 -28 -11 -15 -13 -21 -6 -14 20 17 30 15 30 -8 0 -11 -5 -20 -11
-20 -5 0 -7 -4 -4 -10 3 -5 -2 -10 -12 -10 -11 0 -24 -5 -31 -12 -9 -9 -12 -9
-12 1 0 8 -7 10 -22 6 -16 -6 -20 -4 -15 9 3 8 2 18 -3 21 -6 4 -10 1 -10 -5
0 -6 -5 -8 -11 -4 -20 12 12 23 38 13 30 -11 42 -11 25 0 -20 12 -5 63 17 57
17 -6 49 9 40 18 -3 3 -19 6 -37 8 -35 2 -38 9 -21 37 8 12 9 24 2 35 -8 15
-13 12 -36 -21z m193 -93 c0 -5 -2 -10 -4 -10 -3 0 -8 5 -11 10 -3 6 -1 10 4
10 6 0 11 -4 11 -10z m-16 -65 c-4 -8 -8 -15 -10 -15 -2 0 -4 7 -4 15 0 8 4
15 10 15 5 0 7 -7 4 -15z m-174 -26 c24 -20 24 -21 3 -16 -21 5 -28 -3 -24
-25 0 -5 -3 -8 -9 -8 -5 0 -9 16 -7 35 2 41 4 41 37 14z m-50 1 c0 -5 -4 -10
-10 -10 -5 0 -10 5 -10 10 0 6 5 10 10 10 6 0 10 -4 10 -10z m-75 -50 c3 -5 1
-10 -4 -10 -6 0 -11 5 -11 10 0 6 2 10 4 10 3 0 8 -4 11 -10z"/>
<path d="M2065 803 c-11 -2 -51 -14 -90 -26 -62 -20 -66 -22 -37 -25 37 -4 42
-23 11 -37 -20 -9 -43 -43 -90 -133 -22 -41 -53 -66 -126 -99 -78 -36 -154
-35 -243 2 -63 27 -67 27 -160 16 -186 -21 -201 -29 -162 -79 l18 -23 22 21
c12 11 22 27 22 35 0 8 5 15 10 15 6 0 10 -6 10 -14 0 -8 -4 -18 -10 -21 -19
-12 -11 -26 9 -15 13 6 28 7 43 1 25 -11 16 -13 -44 -14 -21 0 -35 -4 -32 -8
3 -5 -2 -9 -11 -9 -9 0 -15 -6 -12 -12 2 -7 12 -12 22 -10 13 3 16 -1 11 -13
-9 -23 40 -85 62 -78 12 3 14 2 4 -4 -10 -7 -3 -22 29 -61 24 -29 47 -48 53
-44 7 4 5 8 -6 10 -9 2 -19 10 -22 18 -5 12 -2 12 15 3 20 -10 21 -9 15 23 -4
21 -3 26 2 14 10 -23 20 -10 17 22 -2 23 -1 23 105 21 83 -2 114 2 143 16 20
9 37 21 37 26 0 5 7 9 16 9 8 0 12 -5 8 -11 -5 -8 -1 -8 14 0 11 6 22 18 26
26 3 9 19 21 36 26 16 6 27 15 24 20 -3 5 5 9 18 9 20 0 19 2 -12 29 l-35 29
51 -5 c32 -3 54 -1 58 6 5 7 0 9 -11 6 -10 -3 -3 2 15 10 18 9 30 19 28 24 -3
5 1 12 10 15 10 4 13 2 9 -7 -4 -6 7 2 23 20 17 17 33 29 37 25 3 -4 3 1 -1
11 -3 10 -17 17 -33 18 -25 1 -25 1 5 8 41 10 54 19 54 37 0 11 -4 12 -19 4
-11 -5 -34 -10 -52 -10 -27 0 -30 2 -19 15 7 8 17 12 22 9 5 -3 29 -3 54 1 30
4 44 11 44 22 0 11 -7 14 -22 10 -13 -3 -31 -2 -41 2 -15 5 -7 17 48 69 36 34
62 61 58 61 -4 -1 -17 -3 -28 -6z m-135 -211 c0 -11 -39 -12 -45 -1 -4 5 5 9
19 9 14 0 26 -4 26 -8z m-592 -137 c-3 -3 -9 2 -12 12 -6 14 -5 15 5 6 7 -7
10 -15 7 -18z m108 -32 c-3 -22 -46 -31 -46 -10 0 15 14 25 37 26 6 1 10 -7 9
-16z m-73 -38 c-3 -10 0 -15 8 -13 9 2 15 -8 17 -25 3 -27 2 -28 -20 -16 -29
15 -58 40 -58 50 0 4 10 10 23 12 12 2 25 5 29 6 4 0 5 -6 1 -14z m-91 -25
c-9 -16 -21 -29 -25 -27 -10 3 -10 16 1 18 4 1 13 10 20 20 20 29 23 22 4 -11z
m243 0 c3 -6 -1 -7 -9 -4 -18 7 -21 14 -7 14 6 0 13 -4 16 -10z"/>
<path d="M1778 793 c7 -3 16 -2 19 1 4 3 -2 6 -13 5 -11 0 -14 -3 -6 -6z"/>
<path d="M2060 735 c-7 -9 -19 -14 -26 -11 -7 3 -18 -2 -24 -10 -10 -11 -8
-14 13 -14 25 0 57 23 57 41 0 13 -6 11 -20 -6z"/>
<path d="M710 720 c-14 -4 -47 -5 -75 -3 l-50 4 85 -50 c49 -30 87 -46 90 -40
4 5 29 18 56 29 46 18 47 19 17 20 -18 0 -44 -6 -59 -12 -22 -10 -28 -10 -32
0 -2 6 -10 12 -18 12 -9 0 -12 5 -9 10 4 6 15 8 24 5 10 -3 24 1 31 10 8 10 9
15 1 15 -6 0 -11 -5 -11 -11 0 -6 -6 -9 -12 -6 -7 2 -12 10 -10 16 1 6 1 11 0
10 -2 -1 -14 -4 -28 -9z"/>
<path d="M1476 718 c3 -5 10 -6 15 -3 13 9 11 12 -6 12 -8 0 -12 -4 -9 -9z"/>
<path d="M640 660 c0 -6 3 -10 8 -10 4 0 21 -12 37 -28 17 -15 40 -28 53 -29
21 -3 31 -9 67 -40 7 -7 17 -13 22 -13 4 1 -8 15 -27 31 -24 22 -29 29 -15 26
29 -8 156 35 147 50 -8 13 -52 6 -52 -8 0 -5 -7 -9 -16 -9 -8 0 -12 5 -9 10
11 19 -10 10 -28 -11 -11 -12 -25 -18 -34 -14 -9 3 -20 0 -24 -6 -4 -8 -26 0
-68 25 -33 19 -61 31 -61 26z"/>
<path d="M985 660 c3 -5 11 -10 16 -10 6 0 7 5 4 10 -3 6 -11 10 -16 10 -6 0
-7 -4 -4 -10z"/>
<path d="M1214 644 c-18 -14 -18 -15 4 -4 12 6 22 13 22 15 0 8 -5 6 -26 -11z"/>
<path d="M1792 644 c10 -10 20 -15 24 -12 3 4 -5 12 -18 18 -22 12 -22 12 -6
-6z"/>
<path d="M959 606 c-2 -2 -30 -6 -62 -10 -65 -7 -80 -13 -71 -28 3 -5 18 -7
33 -3 14 4 50 10 80 14 45 5 52 8 39 18 -8 7 -17 11 -19 9z"/>
<path d="M860 549 c0 -3 18 -18 41 -35 22 -16 56 -44 75 -63 19 -19 34 -30 34
-26 0 5 7 0 15 -11 12 -16 14 -17 15 -2 0 9 -6 23 -13 30 -8 7 -12 19 -9 26 2
7 -2 10 -12 6 -9 -3 -16 -2 -16 4 0 6 6 13 13 15 6 3 -1 6 -18 6 -31 1 -71 19
-47 22 6 1 17 3 22 4 6 1 17 3 25 4 8 0 15 7 15 14 0 8 -21 12 -70 12 -38 0
-70 -3 -70 -6z"/>
<path d="M1708 503 c7 -3 16 -2 19 1 4 3 -2 6 -13 5 -11 0 -14 -3 -6 -6z"/>
<path d="M750 470 c0 -5 5 -10 10 -10 6 0 10 5 10 10 0 6 -4 10 -10 10 -5 0
-10 -4 -10 -10z"/>
<path d="M809 454 c-12 -14 -11 -16 5 -13 11 2 21 10 24 17 5 17 -13 15 -29
-4z"/>
<path d="M922 443 c-7 -13 -6 -24 5 -38 11 -14 14 -15 10 -4 -3 9 0 22 6 28 8
8 8 14 0 22 -8 8 -14 6 -21 -8z"/>
<path d="M970 414 c0 -8 5 -12 10 -9 6 4 8 11 5 16 -9 14 -15 11 -15 -7z"/>
<path d="M431 337 c2 -1 15 -11 29 -22 l25 -20 -19 23 c-11 12 -24 22 -29 22
-6 0 -8 -1 -6 -3z"/>
</g>
</svg>
